<mxfile host="app.diagrams.net" agent="Mozilla/5.0 (Windows NT 10.0; Win64; x64) AppleWebKit/537.36 (KHTML, like Gecko) Chrome/131.0.0.0 Safari/537.36" version="25.0.1">
  <diagram name="Page-1" id="gNFwO8yM5l1xPKenl-8k">
    <mxGraphModel dx="1674" dy="772" grid="1" gridSize="10" guides="1" tooltips="1" connect="1" arrows="1" fold="1" page="1" pageScale="1" pageWidth="850" pageHeight="1100" math="0" shadow="0">
      <root>
        <mxCell id="0" />
        <mxCell id="1" parent="0" />
        <mxCell id="1g_DeVWEz7e4Ka0wycEt-14" value="&lt;u&gt;RoomID&lt;/u&gt;" style="whiteSpace=wrap;html=1;align=center;" vertex="1" parent="1">
          <mxGeometry x="80" y="230" width="100" height="40" as="geometry" />
        </mxCell>
        <mxCell id="1g_DeVWEz7e4Ka0wycEt-16" value="&lt;u&gt;UserID&lt;/u&gt;" style="whiteSpace=wrap;html=1;align=center;" vertex="1" parent="1">
          <mxGeometry x="180" y="620" width="100" height="40" as="geometry" />
        </mxCell>
        <mxCell id="1g_DeVWEz7e4Ka0wycEt-18" value="EndDate" style="whiteSpace=wrap;html=1;align=center;" vertex="1" parent="1">
          <mxGeometry x="580" y="420" width="100" height="40" as="geometry" />
        </mxCell>
        <mxCell id="1g_DeVWEz7e4Ka0wycEt-20" value="EndTime" style="whiteSpace=wrap;html=1;align=center;" vertex="1" parent="1">
          <mxGeometry x="380" y="420" width="100" height="40" as="geometry" />
        </mxCell>
        <mxCell id="1g_DeVWEz7e4Ka0wycEt-21" value="HasPC" style="whiteSpace=wrap;html=1;align=center;" vertex="1" parent="1">
          <mxGeometry x="480" y="230" width="100" height="40" as="geometry" />
        </mxCell>
        <mxCell id="1g_DeVWEz7e4Ka0wycEt-22" value="Image" style="whiteSpace=wrap;html=1;align=center;" vertex="1" parent="1">
          <mxGeometry x="680" y="230" width="100" height="40" as="geometry" />
        </mxCell>
        <mxCell id="1g_DeVWEz7e4Ka0wycEt-23" value="hasAdmin" style="whiteSpace=wrap;html=1;align=center;" vertex="1" parent="1">
          <mxGeometry x="580" y="50" width="100" height="40" as="geometry" />
        </mxCell>
        <mxCell id="1g_DeVWEz7e4Ka0wycEt-24" value="FirstName" style="whiteSpace=wrap;html=1;align=center;" vertex="1" parent="1">
          <mxGeometry x="380" y="50" width="100" height="40" as="geometry" />
        </mxCell>
        <mxCell id="1g_DeVWEz7e4Ka0wycEt-27" value="&lt;u&gt;RoomID&lt;/u&gt;" style="whiteSpace=wrap;html=1;align=center;" vertex="1" parent="1">
          <mxGeometry x="80" y="620" width="100" height="40" as="geometry" />
        </mxCell>
        <mxCell id="1g_DeVWEz7e4Ka0wycEt-28" value="StartDate" style="whiteSpace=wrap;html=1;align=center;" vertex="1" parent="1">
          <mxGeometry x="480" y="420" width="100" height="40" as="geometry" />
        </mxCell>
        <mxCell id="1g_DeVWEz7e4Ka0wycEt-29" value="StartTime" style="whiteSpace=wrap;html=1;align=center;" vertex="1" parent="1">
          <mxGeometry x="280" y="420" width="100" height="40" as="geometry" />
        </mxCell>
        <mxCell id="1g_DeVWEz7e4Ka0wycEt-30" value="&lt;u&gt;UserID&lt;/u&gt;" style="whiteSpace=wrap;html=1;align=center;" vertex="1" parent="1">
          <mxGeometry x="80" y="50" width="100" height="40" as="geometry" />
        </mxCell>
        <mxCell id="1g_DeVWEz7e4Ka0wycEt-31" value="HasProjector" style="whiteSpace=wrap;html=1;align=center;" vertex="1" parent="1">
          <mxGeometry x="580" y="230" width="100" height="40" as="geometry" />
        </mxCell>
        <mxCell id="1g_DeVWEz7e4Ka0wycEt-32" value="LastName" style="whiteSpace=wrap;html=1;align=center;" vertex="1" parent="1">
          <mxGeometry x="480" y="50" width="100" height="40" as="geometry" />
        </mxCell>
        <mxCell id="1g_DeVWEz7e4Ka0wycEt-33" value="RoomName" style="whiteSpace=wrap;html=1;align=center;" vertex="1" parent="1">
          <mxGeometry x="380" y="230" width="100" height="40" as="geometry" />
        </mxCell>
        <mxCell id="1g_DeVWEz7e4Ka0wycEt-34" value="Image" style="whiteSpace=wrap;html=1;align=center;" vertex="1" parent="1">
          <mxGeometry x="680" y="50" width="100" height="40" as="geometry" />
        </mxCell>
        <mxCell id="1g_DeVWEz7e4Ka0wycEt-35" value="Password" style="whiteSpace=wrap;html=1;align=center;" vertex="1" parent="1">
          <mxGeometry x="280" y="50" width="100" height="40" as="geometry" />
        </mxCell>
        <mxCell id="1g_DeVWEz7e4Ka0wycEt-36" value="Size" style="whiteSpace=wrap;html=1;align=center;" vertex="1" parent="1">
          <mxGeometry x="280" y="230" width="100" height="40" as="geometry" />
        </mxCell>
        <mxCell id="1g_DeVWEz7e4Ka0wycEt-37" value="Email" style="whiteSpace=wrap;html=1;align=center;" vertex="1" parent="1">
          <mxGeometry x="180" y="50" width="100" height="40" as="geometry" />
        </mxCell>
        <mxCell id="1g_DeVWEz7e4Ka0wycEt-38" value="Description" style="whiteSpace=wrap;html=1;align=center;" vertex="1" parent="1">
          <mxGeometry x="680" y="420" width="100" height="40" as="geometry" />
        </mxCell>
        <mxCell id="1g_DeVWEz7e4Ka0wycEt-39" value="Location" style="whiteSpace=wrap;html=1;align=center;" vertex="1" parent="1">
          <mxGeometry x="180" y="230" width="100" height="40" as="geometry" />
        </mxCell>
        <mxCell id="1g_DeVWEz7e4Ka0wycEt-40" value="&lt;u&gt;UserID&lt;/u&gt;" style="whiteSpace=wrap;html=1;align=center;" vertex="1" parent="1">
          <mxGeometry x="180" y="420" width="100" height="40" as="geometry" />
        </mxCell>
        <mxCell id="1g_DeVWEz7e4Ka0wycEt-41" value="&lt;u&gt;RoomID&lt;/u&gt;" style="whiteSpace=wrap;html=1;align=center;" vertex="1" parent="1">
          <mxGeometry x="80" y="420" width="100" height="40" as="geometry" />
        </mxCell>
        <mxCell id="1g_DeVWEz7e4Ka0wycEt-42" value="&lt;font style=&quot;font-size: 24px;&quot;&gt;&lt;b&gt;User&lt;/b&gt;&lt;/font&gt;" style="text;html=1;align=center;verticalAlign=middle;resizable=0;points=[];autosize=1;strokeColor=none;fillColor=none;" vertex="1" parent="1">
          <mxGeometry x="75" y="10" width="80" height="40" as="geometry" />
        </mxCell>
        <mxCell id="1g_DeVWEz7e4Ka0wycEt-43" value="&lt;font style=&quot;font-size: 24px;&quot;&gt;&lt;b&gt;Room&lt;/b&gt;&lt;/font&gt;" style="text;html=1;align=center;verticalAlign=middle;resizable=0;points=[];autosize=1;strokeColor=none;fillColor=none;" vertex="1" parent="1">
          <mxGeometry x="75" y="190" width="90" height="40" as="geometry" />
        </mxCell>
        <mxCell id="1g_DeVWEz7e4Ka0wycEt-44" value="&lt;font style=&quot;font-size: 24px;&quot;&gt;&lt;b&gt;Book&lt;/b&gt;&lt;/font&gt;" style="text;html=1;align=center;verticalAlign=middle;resizable=0;points=[];autosize=1;strokeColor=none;fillColor=none;" vertex="1" parent="1">
          <mxGeometry x="75" y="380" width="80" height="40" as="geometry" />
        </mxCell>
        <mxCell id="1g_DeVWEz7e4Ka0wycEt-45" value="&lt;b&gt;&lt;font style=&quot;font-size: 24px;&quot;&gt;Favorite&lt;/font&gt;&lt;/b&gt;" style="text;html=1;align=center;verticalAlign=middle;resizable=0;points=[];autosize=1;strokeColor=none;fillColor=none;" vertex="1" parent="1">
          <mxGeometry x="70" y="583" width="120" height="40" as="geometry" />
        </mxCell>
      </root>
    </mxGraphModel>
  </diagram>
</mxfile>
